<?xml version="1.0" standalone="no"?>
<!DOCTYPE svg PUBLIC "-//W3C//DTD SVG 20010904//EN"
 "http://www.w3.org/TR/2001/REC-SVG-20010904/DTD/svg10.dtd">
<svg version="1.0" xmlns="http://www.w3.org/2000/svg"
 width="1024.000000pt" height="1024.000000pt" viewBox="0 0 1024.000000 1024.000000"
 preserveAspectRatio="xMidYMid meet">
<metadata>
Created by potrace 1.14, written by Peter Selinger 2001-2017
</metadata>
<g transform="translate(0.000000,1024.000000) scale(0.100000,-0.100000)"
fill="#000000" stroke="none">
<path d="M2558 9605 c-2 -2 -31 -7 -63 -9 -72 -7 -193 -43 -219 -65 -10 -9
-20 -14 -23 -12 -3 2 -32 -16 -65 -40 -133 -97 -218 -227 -256 -394 -10 -43
-8 -7904 2 -7940 4 -16 9 -37 11 -45 2 -8 4 -16 5 -17 2 -2 3 -6 4 -10 1 -5
10 -25 19 -47 9 -21 17 -40 17 -42 0 -2 18 -30 40 -62 37 -53 95 -113 161
-166 42 -32 166 -86 234 -100 118 -25 312 -8 385 34 8 5 39 21 69 36 30 15 87
60 130 103 61 59 87 95 119 161 23 47 44 100 47 119 3 19 8 39 12 44 10 16 20
227 11 242 -3 6 -2 19 2 30 4 11 4 32 -1 48 -4 15 -5 27 -1 27 4 0 7 16 7 35
0 19 -3 35 -7 35 -4 0 -3 12 1 28 5 15 5 36 1 47 -4 11 -5 24 -2 29 8 14 8 76
0 76 -4 0 -3 13 2 28 4 16 4 35 -1 43 -4 8 -4 21 1 29 4 7 4 23 0 36 -5 12 -6
25 -3 28 7 7 8 130 1 142 -3 5 -2 18 2 29 4 11 4 32 -1 48 -4 15 -5 27 -1 27
4 0 7 16 7 35 0 19 -3 35 -7 35 -4 0 -3 13 2 30 5 17 5 32 0 35 -5 3 -5 16 -1
28 5 12 5 34 1 48 -4 15 -4 32 0 39 4 7 4 26 0 41 -5 16 -5 31 0 34 5 3 5 18
0 34 -4 16 -6 32 -3 35 7 7 8 210 1 222 -3 5 -2 18 2 29 4 11 4 32 -1 48 -4
15 -5 27 -1 27 4 0 7 16 7 35 0 19 -3 35 -7 35 -4 0 -3 13 2 30 5 16 5 32 0
35 -5 3 -5 18 -1 33 5 15 5 36 1 47 -4 11 -4 32 0 46 4 14 4 32 -1 40 -4 8 -4
21 1 29 4 7 4 23 0 36 -5 12 -6 25 -3 28 8 8 9 76 1 76 -4 0 -3 13 2 28 4 16
4 35 -1 43 -4 8 -4 21 1 29 4 7 4 23 0 36 -5 12 -6 25 -3 28 8 8 9 76 1 76 -4
0 -3 13 2 29 4 15 4 34 0 42 -5 7 -5 20 0 28 4 8 4 25 -1 38 -4 12 -4 25 0 27
5 3 5 24 1 46 -7 39 -7 40 19 38 15 -1 31 1 37 4 5 4 16 3 24 -2 8 -5 21 -5
30 0 9 5 22 5 30 0 8 -5 21 -5 30 0 9 5 22 5 30 0 8 -5 21 -5 30 0 9 5 22 5
30 0 8 -5 21 -5 30 0 9 5 22 5 30 0 8 -5 21 -5 30 0 9 5 22 5 30 0 8 -5 21 -5
30 0 9 5 22 5 30 0 8 -5 21 -5 30 0 9 5 22 5 30 0 8 -5 21 -5 30 0 9 5 22 5
29 0 8 -4 27 -4 42 0 16 5 29 5 29 0 0 -5 13 -5 30 0 17 5 30 5 30 0 0 -5 13
-5 30 0 17 5 30 5 30 0 0 -5 13 -5 30 0 17 5 30 5 30 0 0 -5 13 -5 30 0 17 5
30 5 30 0 0 -5 13 -5 30 0 17 5 30 5 30 0 0 -5 13 -5 30 0 17 5 30 5 30 0 0
-5 13 -5 30 0 17 5 30 5 30 0 0 -5 13 -5 30 0 17 5 30 5 30 0 0 -5 13 -5 30 0
17 5 30 5 30 0 0 -5 13 -5 30 0 17 5 30 5 30 0 0 -5 13 -5 30 0 17 5 30 5 30
0 0 -5 13 -5 30 0 17 5 30 5 30 0 0 -5 13 -5 30 0 17 5 30 5 30 0 0 -5 13 -5
30 0 17 5 30 5 30 0 0 -5 13 -5 30 0 17 5 30 5 30 0 0 -5 13 -5 30 0 17 5 30
5 30 0 0 -5 13 -5 30 0 17 5 30 5 30 0 0 -5 13 -5 30 0 17 5 30 6 30 2 0 -4
19 -6 42 -4 118 8 115 10 238 -168 27 -39 187 -263 232 -324 24 -33 45 -65 48
-71 3 -6 11 -18 18 -26 7 -8 43 -57 80 -109 37 -52 70 -96 74 -98 5 -2 8 -9 8
-15 0 -7 10 -24 23 -38 12 -14 27 -32 32 -41 28 -46 130 -183 137 -186 4 -2 8
-9 8 -15 0 -7 12 -25 26 -42 14 -16 33 -42 42 -57 9 -16 20 -28 24 -28 4 0 8
-7 8 -15 0 -8 5 -15 10 -15 6 0 10 -4 10 -10 0 -9 83 -128 114 -162 8 -9 20
-27 27 -40 6 -13 15 -25 18 -28 4 -3 29 -36 56 -75 27 -38 53 -71 57 -73 4 -2
8 -8 8 -14 0 -6 14 -27 30 -48 17 -21 30 -41 30 -44 0 -3 8 -14 18 -25 9 -10
42 -54 72 -97 30 -44 59 -82 65 -86 5 -4 7 -8 3 -8 -4 0 -1 -8 7 -17 40 -49
115 -155 115 -163 0 -6 5 -10 10 -10 6 0 10 -4 10 -10 0 -9 19 -35 48 -65 6
-8 12 -16 12 -20 0 -3 5 -11 10 -18 30 -35 130 -179 130 -186 0 -5 4 -11 8
-13 4 -1 23 -25 42 -53 19 -27 37 -52 40 -55 3 -3 30 -40 60 -83 247 -351 302
-412 426 -474 42 -20 81 -38 88 -40 6 -1 37 -9 68 -17 51 -13 226 -15 268 -3
87 23 114 34 171 63 36 19 90 57 120 83 53 47 140 156 140 176 0 6 6 17 13 25
7 8 23 47 36 85 28 87 35 232 15 326 -16 76 -69 194 -117 261 -18 25 -143 200
-278 388 -135 187 -249 349 -255 358 -5 9 -12 19 -15 22 -11 10 -330 461 -330
466 0 2 -9 15 -20 27 -12 12 -67 87 -123 167 -55 80 -105 147 -109 148 -4 2
-8 10 -8 18 0 8 -4 14 -10 14 -5 0 -10 6 -10 14 0 8 -3 16 -7 18 -8 3 -83 105
-133 180 -14 21 -28 38 -32 38 -5 0 -8 6 -8 13 0 8 -9 22 -20 32 -11 10 -20
24 -20 31 0 7 -4 14 -10 16 -5 1 -26 28 -47 60 -48 71 -205 291 -213 298 -10
8 -40 54 -40 61 0 4 24 17 53 29 151 64 371 182 445 238 17 13 32 20 32 16 0
-5 4 -4 8 2 4 5 29 26 57 45 57 39 60 42 140 106 33 26 69 55 80 63 36 28 290
285 325 329 19 24 42 51 50 60 49 53 230 320 230 340 0 6 3 11 8 11 4 0 12 10
18 23 6 12 31 60 55 107 25 47 67 137 93 200 26 63 54 130 62 148 8 18 14 41
14 50 0 10 5 23 12 30 7 7 9 12 5 12 -4 0 -3 9 3 21 6 11 13 29 15 39 2 10 12
53 24 96 27 107 33 135 37 164 2 14 6 36 10 50 4 14 8 36 10 50 6 58 15 127
20 160 10 56 12 481 3 546 -4 32 -10 84 -13 114 -3 30 -8 65 -10 76 -5 26 -17
92 -21 119 -2 11 -8 40 -14 65 -7 25 -13 52 -15 60 -27 108 -39 150 -49 175
-6 17 -12 35 -13 40 -2 12 -41 121 -54 150 -5 11 -25 58 -45 105 -74 171 -225
432 -322 555 -13 17 -27 35 -31 40 -107 147 -342 384 -501 505 -18 14 -47 37
-64 52 -18 15 -40 30 -49 34 -10 3 -18 10 -18 15 0 5 -6 9 -14 9 -8 0 -16 3
-18 8 -4 8 -65 52 -73 52 -3 0 -33 18 -66 40 -32 23 -59 38 -59 34 0 -4 -8 0
-17 8 -42 38 -388 191 -506 224 -29 8 -61 19 -72 24 -18 7 -55 18 -92 26 -7 1
-43 10 -80 19 -37 10 -81 19 -98 21 -16 3 -50 9 -75 14 -25 5 -67 12 -95 15
-27 3 -68 8 -90 11 -22 2 -82 6 -133 8 -51 2 -96 6 -99 9 -3 3 -16 2 -29 -3
-13 -5 -26 -6 -29 0 -3 5 -18 5 -35 0 -17 -5 -30 -5 -30 0 0 5 -13 5 -30 0
-16 -5 -32 -5 -35 0 -3 4 -21 4 -40 0 -19 -4 -35 -4 -35 0 0 5 -13 5 -30 0
-17 -5 -30 -5 -30 0 0 5 -12 5 -27 2 -16 -4 -41 -6 -58 -5 -16 2 -36 3 -42 3
-7 0 -20 0 -28 0 -8 0 -22 0 -30 0 -8 0 -21 0 -27 0 -7 0 -108 0 -224 1 -116
1 -216 -1 -221 -4 -5 -3 -15 -2 -23 3 -7 4 -24 4 -36 0 -14 -6 -26 -5 -29 0
-3 6 -15 6 -30 0 -15 -6 -27 -6 -30 0 -3 6 -15 6 -30 0 -15 -6 -27 -6 -30 0
-3 6 -15 6 -30 0 -15 -6 -27 -6 -30 0 -3 6 -15 6 -30 0 -15 -6 -27 -6 -30 0
-3 6 -15 6 -30 0 -15 -6 -27 -6 -30 0 -3 6 -15 6 -30 0 -15 -6 -27 -6 -30 0
-3 6 -15 6 -30 0 -15 -6 -27 -6 -30 0 -3 6 -15 6 -30 0 -15 -6 -27 -6 -30 0
-3 6 -15 6 -30 0 -13 -5 -26 -6 -29 -2 -5 8 -80 6 -103 -2 -7 -3 -13 -1 -13 4
0 5 -13 5 -30 0 -16 -5 -32 -5 -35 0 -3 4 -21 4 -40 0 -19 -4 -35 -4 -35 0 0
5 -13 5 -30 0 -17 -5 -30 -5 -30 0 0 5 -13 5 -30 0 -17 -5 -30 -5 -30 0 0 5
-13 5 -30 0 -17 -5 -30 -5 -30 0 0 5 -13 5 -30 0 -16 -5 -32 -5 -35 0 -3 4
-21 4 -40 0 -19 -4 -35 -4 -35 0 0 5 -13 5 -30 0 -19 -5 -30 -5 -30 1 0 6 -4
7 -10 4 -13 -8 -108 -11 -116 -3 -3 4 -17 3 -30 -2 -14 -6 -26 -6 -29 0 -3 5
-15 6 -28 1 -12 -5 -32 -5 -44 0 -13 5 -25 4 -28 -1 -3 -6 -15 -6 -30 0 -15 6
-27 6 -30 0 -3 -6 -15 -6 -30 0 -15 6 -27 6 -30 0 -3 -6 -15 -6 -30 0 -15 6
-27 6 -30 0 -3 -6 -15 -6 -30 0 -15 6 -27 6 -30 0 -3 -6 -15 -6 -30 0 -15 6
-27 6 -30 0 -3 -6 -15 -6 -30 0 -15 6 -27 6 -30 0 -3 -6 -15 -6 -29 0 -13 5
-26 7 -28 5z m762 -1285 c22 4 40 4 40 0 0 -4 18 -4 40 0 22 4 40 4 40 0 0 -4
18 -4 40 0 22 4 40 4 40 0 0 -4 18 -4 40 0 22 4 40 4 40 0 0 -4 18 -4 40 0 22
4 40 4 40 0 0 -4 18 -4 40 0 23 4 40 3 40 -2 0 -5 5 -6 10 -3 9 5 52 7 153 4
9 0 42 1 72 1 30 1 59 -1 64 -4 5 -4 12 -2 15 3 3 4 23 6 43 2 21 -3 56 -4 78
-1 22 3 59 2 83 -1 23 -3 42 -2 42 3 0 5 4 7 9 4 5 -4 26 -6 48 -6 155 -1 219
0 301 3 28 1 52 0 52 -3 0 -3 21 -4 47 -3 71 3 106 3 128 3 11 -1 41 0 68 0
26 1 51 -1 56 -5 5 -3 12 -1 15 4 3 5 20 6 38 2 18 -4 54 -4 81 -1 26 4 49 4
52 2 3 -3 33 -4 68 -3 60 2 72 2 100 0 6 0 23 0 37 1 33 2 209 -9 240 -15 14
-3 40 -7 59 -10 57 -8 191 -44 266 -72 118 -44 316 -145 323 -164 2 -5 10 -9
18 -9 8 0 14 -4 14 -10 0 -5 6 -10 13 -10 6 0 28 -14 47 -30 19 -17 46 -39 58
-50 13 -11 26 -20 28 -20 7 0 157 -154 184 -190 14 -18 31 -39 39 -47 21 -22
61 -83 61 -93 0 -4 4 -10 8 -12 21 -9 135 -228 162 -313 7 -22 15 -44 19 -50
3 -5 6 -14 7 -20 1 -5 9 -34 17 -62 9 -29 14 -53 11 -53 -3 0 0 -8 5 -19 6
-10 13 -36 15 -57 3 -22 9 -66 13 -99 10 -73 10 -319 0 -395 -15 -127 -43
-239 -90 -360 -27 -72 -68 -162 -76 -170 -3 -3 -14 -21 -23 -40 -20 -40 -26
-49 -87 -138 -54 -80 -51 -76 -164 -192 -96 -99 -170 -161 -270 -224 -77 -49
-208 -117 -277 -143 -113 -43 -96 -37 -131 -47 -14 -4 -34 -9 -45 -11 -10 -2
-19 -4 -19 -5 0 -2 -11 -4 -80 -19 -50 -11 -84 -16 -185 -26 -42 -4 -2154 -9
-2344 -6 -35 1 -38 3 -34 26 3 14 2 28 -3 31 -5 2 -5 15 0 27 5 12 5 31 1 42
-4 11 -5 24 -2 30 5 8 6 77 2 100 -1 6 -2 12 0 15 5 15 4 80 -2 80 -4 0 -3 13
2 29 4 15 4 34 0 41 -4 6 -4 27 0 45 4 18 4 39 0 46 -5 7 -4 22 0 35 5 12 7
24 5 25 -8 9 -12 66 -5 84 4 11 4 29 0 41 -5 11 -5 27 0 34 4 7 4 25 0 40 -4
15 -4 33 0 40 4 7 4 26 0 41 -5 16 -5 31 0 34 4 3 5 20 1 38 -5 18 -5 41 -1
52 4 11 4 29 0 41 -5 11 -5 27 0 34 4 7 4 25 0 40 -4 15 -4 33 0 40 4 7 4 25
0 41 -5 15 -6 30 -2 33 3 3 5 27 4 54 -2 60 -2 116 0 168 1 22 -1 44 -4 50 -3
5 -2 18 2 29 4 11 4 32 -1 48 -4 15 -5 27 -1 27 4 0 7 16 7 35 0 19 -3 35 -7
35 -4 0 -3 13 2 30 5 16 5 32 0 35 -5 3 -5 18 -1 33 5 15 5 36 1 47 -4 11 -4
32 0 46 4 15 4 32 0 40 -5 7 -5 20 0 28 4 8 4 25 0 37 -5 12 -6 25 -3 28 8 8
9 76 1 76 -4 0 -3 13 2 29 4 15 4 34 0 42 -5 7 -5 20 0 28 4 8 4 25 0 37 -5
12 -6 25 -3 28 8 8 9 76 1 76 -4 0 -3 13 2 29 4 15 4 34 0 42 -5 7 -5 20 0 28
4 8 5 24 0 35 -4 12 -4 30 0 41 4 11 4 32 -1 47 -4 14 -5 29 -3 31 7 7 9 101
2 112 -3 6 -2 19 2 30 4 11 4 32 -1 48 -4 15 -5 27 -1 27 4 0 7 16 7 35 0 19
-3 35 -6 35 -4 0 -3 15 1 34 4 19 4 40 0 46 -4 7 -4 24 0 39 4 14 4 36 0 47
-5 11 -5 27 0 34 4 7 4 26 0 41 -5 16 -5 31 0 34 5 3 5 19 0 35 -8 26 -6 31
13 35 46 9 62 10 65 4 1 -3 21 -3 42 1z"/>
</g>
</svg>
